<svg xmlns="http://www.w3.org/2000/svg" viewBox="0 0 367.6 512"><title>cat-slim</title><path d="M318.43-42.8h-2c-3.58,1.86-5.71,5-7.55,8.42A82.65,82.65,0,0,0,302-16.2c-1.12,4.27-3.43,6.31-7.78,7.07C281.91-7,273,0,266.72,10.62A141,141,0,0,0,257,31.44c-7.5,19.44-13.23,39.49-20.22,59.1-3.34,9.36-3.47,9.24-13.48,9.34-11.9.11-11.07-1.86-11.25,11.33-.05,4.18,1.26,6.29,5.68,6.07,1.36-.06,3.42-.69,3.93,1.14.43,1.52-1.25,2.58-2.26,3.64-6.27,6.64-14.11,10.5-22.78,12.85-10,2.69-20.13,4.79-29.89,8.09-24.9,8.4-48,20.13-65.92,40-11,12.12-18.49,26.49-24.89,41.39-19.5,45.41-28.64,93.47-35.91,142-3.4,22.73-5.8,45.58-7.66,68.47-.93,11.44-2.13,22.88-2,34.39h175c.62-2.44-.39-4.61-1.22-6.76-3.56-9.26-10.86-14.08-20.09-16.22-3.65-.84-4.11-1.94-1.85-4.83A54.08,54.08,0,0,0,190.63,425c8.57-25.37,11.88-51.84,16-78.11,3.16-20.06,7.87-39.46,18.26-57.16a114.81,114.81,0,0,1,29.38-33.63c4.36-3.33,4.5-3.33,5.25,2.33.5,3.78.63,7.61.86,11.43a491.52,491.52,0,0,1-.9,74.8c-1.79,19.42-2.5,38.81-.81,58.29a398.7,398.7,0,0,0,11.74,66.25h70a28.57,28.57,0,0,0-22.27-23.44c-6.74-1.32-13.28-.43-19.79,1.07-3.14.72-4.45.15-4.72-3.43a301,301,0,0,1,5.05-83.5c6.6-31.8,12.81-63.67,16.1-96a94,94,0,0,1,11.94-37.09c6.27-11.19,11.73-22.82,17.89-34.08,4.87-8.91,5.8-17.92,2.18-27.39-1.43-3.73-2.79-7.51-4.53-11.1-5-10.33-10.35-20.52-15.3-30.89-2.56-5.36-2-5.93,3.72-6.05,8.57-.19,8.57-.19,8.7-8.68,0-1.16,0-2.33,0-3.49.07-3.64-1.35-5.65-5.33-5.35-2.65.2-5.33,0-8,0-3.63.07-4.68-1.52-3.79-5,3.05-12,14.6-21.9,27-23.41C361,70,372.51,71.63,384,73.67c3.4.61,5.28-.14,6.57-3.37,2.09-5.26,4.44-10.42,6.76-15.59,1-2.15,1.05-4.05-.48-6C380.14,27,362,7,337.12-5.73a7.94,7.94,0,0,1-4.67-5.94c-1.57-7.5-3.41-14.94-6.65-21.95C324.09-37.3,322.13-40.74,318.43-42.8Z" transform="translate(-30.41 42.8)"/></svg>